# xmcd
#
# Track frame offsets:
#	150
#	17824
#	31806
#	48703
#	65391
#	78642
#	97380
#	110907
#	129301
#	143982
#	160905
#	179053
#	198942
#
# Disc length: 2906 seconds
# Revision: 0
# Processed by: cddbd v1.5.2PL0 Copyright (c) Steve Scherf et al.
# Submitted via: dBpowerAMP V12.0
#
DISCID=c10b580d
DTITLE=Teea Goans - That's Just Me
DYEAR=2012
DGENRE=Country
TTITLE0=Love's In The Here And Now
TTITLE1=Pour A Little Love On It
TTITLE2=Misty Blue
TTITLE3=The BIG Hurt
TTITLE4=That's Just Me Loving You  (Duet with Jamie Dailey)
TTITLE5=Nobody wins
TTITLE6=Loving Proof
TTITLE7=I've Done Enough Dying Today
TTITLE8=The World's Biggest Fool
TTITLE9=Loving You Makes Leaving Easy
TTITLE10=Overboard
TTITLE11=Wake Up Dancing
TTITLE12=Over The Rainbow
EXTD=
EXTT0=
EXTT1=
EXTT2=
EXTT3=
EXTT4=
EXTT5=
EXTT6=
EXTT7=
EXTT8=
EXTT9=
EXTT10=
EXTT11=
EXTT12=
PLAYORDER=
